<svg xmlns="http://www.w3.org/2000/svg" viewBox="0 0 1623 754.89"><defs><style>.cls-1{fill:#292f36;}.cls-2{fill:#66d0db;}.cls-3{fill:#4ecdc4;}</style></defs><g id="Layer_2" data-name="Layer 2"><g id="Layer_1-2" data-name="Layer 1"><path class="cls-1" d="M1410.39,754.89v-27.2H1239.54a208,208,0,0,1-208.1-208.11V376.77h106.09V518.22a102,102,0,0,0,102,102h170.85V591.67L1623,673.28Z"/><path class="cls-2" d="M1257.59,27.2V133.3H769.07a70.88,70.88,0,0,0-70.88,70.88v315.4c0,.83,0,1.64,0,2.46,0,.19,0,.39,0,.57v0c0,.83,0,1.65,0,2.47s0,1.41-.07,2.12c0,.33,0,.66,0,1v0c0,.78-.07,1.57-.11,2.35s-.09,1.54-.14,2.31c0,.28,0,.56,0,.84,0,.6-.08,1.2-.13,1.8l0,.24c0,.42-.06.84-.1,1.26l-.06.77c0,.4-.07.81-.11,1.22-.06.66-.13,1.33-.2,2,0,.28-.05.57-.08.85-.08.75-.17,1.5-.26,2.25s-.16,1.38-.25,2.07c0,.11,0,.21,0,.32s-.05.39-.08.59c-.1.79-.21,1.58-.32,2.37s-.24,1.64-.38,2.46c0,.13,0,.26-.06.39a.3.3,0,0,1,0,.1c-.12.78-.25,1.57-.38,2.34s-.29,1.67-.44,2.51c0,.15,0,.29-.08.43-.14.78-.29,1.55-.44,2.32,0,.06,0,.12,0,.18-.16.81-.32,1.62-.49,2.43q-.56,2.6-1.16,5.18l-.63,2.58q-.65,2.57-1.35,5.1c-.48,1.7-1,3.38-1.48,5.06-.26.84-.52,1.67-.79,2.51s-.54,1.66-.82,2.49-.55,1.66-.84,2.48l-.87,2.47-.84,2.27c0,.11-.08.22-.13.33-.26.7-.53,1.4-.8,2.1,0,.1-.07.19-.11.28l-.84,2.1a4.55,4.55,0,0,1-.21.51c-.29.72-.58,1.42-.88,2.13s-.67,1.6-1,2.39H609.39a206.83,206.83,0,0,1-17.29-83V235.31A208.24,208.24,0,0,1,800.21,27.2Z"/><path class="cls-1" d="M1137.53,235.31V519.58A208.34,208.34,0,0,1,929.42,727.69H398.58V621.6H929.42a102.13,102.13,0,0,0,102-102V235.31a102.12,102.12,0,0,0-102-102H212.61v29.92L0,81.61,212.61,0V27.2H929.42a208.24,208.24,0,0,1,208.11,208.11Z"/><path class="cls-2" d="M667,496.2l14,106.41a203.41,203.41,0,0,1-9.45,19A208.31,208.31,0,0,1,490.09,727.69H348.35V620.23H490.09a102,102,0,0,0,102-102v1.36C592.1,549.08,655.88,470.75,667,496.2Z"/><path class="cls-3" d="M689.12,580.55c.51-1.68,1-3.36,1.48-5.06C690.13,577.19,689.64,578.87,689.12,580.55Z"/><path class="cls-3" d="M693.74,562.63q-.54,2.6-1.16,5.18Q693.18,565.23,693.74,562.63Z"/></g></g></svg>